<?xml version="1.0" encoding="UTF-8"?>
<!-- Generator: Adobe Illustrator 27.0.0, SVG Export Plug-In . SVG Version: 6.00 Build 0)  -->
<svg xmlns="http://www.w3.org/2000/svg" xmlns:xlink="http://www.w3.org/1999/xlink" version="1.1" id="Layer_1" x="0px" y="0px" viewBox="0 0 680 251" style="enable-background:new 0 0 680 251;" xml:space="preserve">
<style type="text/css">
	.st0{fill:#12CB81;}
	.st1{fill:#D3E8D8;}
	.st2{fill:#BFB0D7;}
</style>
<g>
	<path class="st0" d="M305.6,40.8c3.6-3.9,8.7-5.4,14.5-5.4c16.1,0,26.4,10.5,26.4,30.6v8c0,18.4-8.7,30.8-26.4,30.8   c-6.6,0-11.3-1.7-14.5-5.2v4h-16.2V11.1h16.2V40.8z M329.5,73.4v-7c0-10.7-3.5-16.6-11.9-16.6s-11.9,5.9-11.9,16.6v7   c0,9.6,2.9,16.9,11.9,16.9C326.8,90.3,329.5,83.1,329.5,73.4z"></path>
	<path class="st0" d="M408.3,93.4c-4.7,8.2-12.5,11.4-24.5,11.4c-20.1,0-29.7-13-29.7-30.3v-9.1c0-20.2,10.2-30,27.6-30   c18.9,0,27.6,11,27.6,31.4v7.6H371c0.1,9.2,3.1,15.9,12.6,15.9c7.1,0,9.4-2.1,11.9-5.8L408.3,93.4z M371,62.2h21   c-0.4-8.7-3.9-12.3-10.3-12.3C374.9,49.9,371.7,54.6,371,62.2z"></path>
	<path class="st0" d="M420.2,11.1h17.2v30.7c2.5-3.4,7.2-6.4,15-6.4c13.5,0,24.5,6.4,24.5,26.3v41.9h-17V64.3   c0-10.5-3.8-14.2-10.7-14.2c-7.9,0-11.8,5.2-11.8,14.1v39.4h-17.2V11.1z"></path>
	<path class="st0" d="M510.8,63.4h13.3v-3.9c0-7.5-2.3-9.9-11.9-9.9c-6.6,0-9.8,0.9-12.6,5.4l-12.1-8.4c5-8.2,12.5-11.1,26.3-11.1   c17.3,0,27.1,5.1,27.1,24.3v44h-16.8v-5.9c-2.7,4.6-6.7,7.1-14.5,7.1c-13.9,0-23.6-7.4-23.6-21C486,69.6,496.7,63.4,510.8,63.4z    M524.1,76h-11.3c-7,0-10,2.3-10,7.5c0,5.1,3.9,7.5,9.8,7.5c7.8,0,11.5-3.4,11.5-12.5V76z"></path>
	<path class="st0" d="M612.6,36.6l-25.5,67h-16.1l-26-67h18.8l15,43.4l14.9-43.4H612.6z"></path>
	<path class="st0" d="M668.1,93.4c-4.7,8.2-12.5,11.4-24.5,11.4c-20.1,0-29.7-13-29.7-30.3v-9.1c0-20.2,10.2-30,27.6-30   c18.9,0,27.6,11,27.6,31.4v7.6h-38.2c0.1,9.2,3.1,15.9,12.6,15.9c7.1,0,9.4-2.1,11.9-5.8L668.1,93.4z M630.9,62.2h21   c-0.4-8.7-3.9-12.3-10.3-12.3C634.7,49.9,631.5,54.6,630.9,62.2z"></path>
	<path class="st0" d="M327.9,146.6h17v65.7c0,22.4-12.6,27.6-29.5,27.6c-12.5,0-20.4-2.9-26.3-12.1l11.5-8.3c2.9,4,6.8,6,13.1,6   c10.2,0,14.1-2.9,14.1-13.3v-2.1c-3.6,3.1-8.3,4.7-14.3,4.7c-17.6,0-26.5-12.5-26.5-30.3v-9.1c0-19.6,10.6-30,26.5-30   c6,0,10.7,1.6,14.3,4.7V146.6z M327.9,184.9v-8.4c0-10.7-3.5-16.6-11.9-16.6c-8.4,0-11.9,5.9-11.9,16.6v7c0,9.6,2.7,16.9,11.9,16.9   C325.1,200.3,327.9,193.8,327.9,184.9z"></path>
	<path class="st0" d="M393.7,165.2c-1.7-2.5-4.2-5.1-8.4-5.1c-6.4,0-10.7,4.7-10.7,14.1v39.4h-17.2v-67h16.8v5.6   c2.3-3.4,6.7-6.8,14.6-6.8c8,0,14.1,3.5,18.1,10.5L393.7,165.2z"></path>
	<path class="st0" d="M461.9,203.4c-4.7,8.2-12.5,11.4-24.5,11.4c-20.1,0-29.7-13-29.7-30.3v-9.1c0-20.2,10.2-30,27.6-30   c18.9,0,27.6,11,27.6,31.4v7.6h-38.2c0.1,9.2,3.1,15.9,12.6,15.9c7.1,0,9.4-2.1,11.9-5.8L461.9,203.4z M424.6,172.2h21   c-0.4-8.7-3.9-12.3-10.3-12.3C428.5,159.9,425.3,164.6,424.6,172.2z"></path>
	<path class="st0" d="M525.7,203.4c-4.7,8.2-12.5,11.4-24.5,11.4c-20.1,0-29.7-13-29.7-30.3v-9.1c0-20.2,10.2-30,27.6-30   c18.9,0,27.6,11,27.6,31.4v7.6h-38.2c0.1,9.2,3.1,15.9,12.6,15.9c7.1,0,9.4-2.1,11.9-5.8L525.7,203.4z M488.4,172.2h21   c-0.4-8.7-3.9-12.3-10.3-12.3C492.3,159.9,489.1,164.6,488.4,172.2z"></path>
	<path class="st0" d="M537.6,146.6h16.8v5.6c2.5-3.4,7.9-6.8,15.4-6.8c13.5,0,24.5,6.4,24.5,26.3v41.9h-17v-39.3   c0-10.5-3.8-14.2-10.7-14.2c-7.9,0-11.8,5.2-11.8,14.1v39.4h-17.2V146.6z"></path>
</g>
<path class="st1" d="M156.4,12.3c-28,0-50.6,22.9-50.6,51.2c0,0.1,0,0.1,0,0.2c0,1.5,0.1,3,0.2,4.4v46.5h47.1c0.3,0,0.7,0.1,1,0.1  c0.7,0,1.5,0.1,2.2,0.1c28,0,50.6-22.9,50.6-51.2C207,35.3,184.4,12.3,156.4,12.3z"></path>
<path class="st0" d="M67.7,113.5c22-5.7,38.3-25.7,38.3-49.4v-1.3c0-28.2-22.9-51.1-51.2-51.1H11v100.6v1.2v0.2h56.1  C67.3,113.7,67.5,113.6,67.7,113.5z"></path>
<path class="st1" d="M11,215.8h44.1c27.2,0,49.4-21.3,51-48.1c0-0.8-0.1-1.6-0.1-2.4v-5.8c-1.7-22.4-17.8-40.8-39.2-45.9  c0,0,0,0,0.1,0H11v1.5V215.8z"></path>
<path class="st2" d="M154.4,114.7H106v8.4v36.5c0.1,1.3,0.2,2.5,0.2,3.8v1.3c0,1,0,2-0.1,3c1.2,26.8,23.3,48.1,50.4,48.1  c27.9,0,50.5-22.6,50.5-50.5v-50.7H154.4z"></path>
</svg>
